<?xml version="1.0" encoding="UTF-8" standalone="no"?><!DOCTYPE svg PUBLIC "-//W3C//DTD SVG 1.1//EN" "http://www.w3.org/Graphics/SVG/1.1/DTD/svg11.dtd"><svg width="100%" height="100%" viewBox="0 0 1024 1024" version="1.1" xmlns="http://www.w3.org/2000/svg" xmlns:xlink="http://www.w3.org/1999/xlink" xml:space="preserve" xmlns:serif="http://www.serif.com/" style="fill-rule:evenodd;clip-rule:evenodd;stroke-linejoin:round;stroke-miterlimit:2;"><path d="M934.481,472.129l-177.881,-309.363c-13.594,-24.109 -39.015,-39.268 -66.688,-39.77l-355.829,0c-27.676,0.488 -53.103,15.651 -66.688,39.77l-177.948,308.551c-13.749,23.926 -13.749,53.45 0,77.375l177.881,311.122c13.446,24.452 38.803,40.114 66.688,41.19l355.829,0c27.882,-0.957 53.286,-16.555 66.755,-40.987l177.881,-309.363c13.845,-24.311 13.845,-54.214 0,-78.525Z" style="fill:#4285f4;fill-rule:nonzero;"/><path d="M512,429.697l74.003,-94.642l60.156,0l0,0.22l261.913,261.308l-151.472,263.434c-13.469,24.432 -38.873,40.03 -66.755,40.987l-68.849,0l-243.155,-239.111l0,-326.838l44.903,0l89.256,94.642Z" style="fill:#242424;fill-opacity:0.09;"/><g id="Ebene1"><path d="M377.841,383.923l0,-41.643c0,-1.916 0.761,-3.754 2.116,-5.109c1.355,-1.355 3.193,-2.116 5.109,-2.116c9.037,0 24.416,0 33.452,0c3.991,0 7.226,3.235 7.226,7.225l0,23.27c0,1.563 0.506,3.084 1.444,4.335c7.816,10.422 45.22,60.302 59.678,79.582c1.357,1.81 3.483,2.879 5.745,2.891c2.261,0.011 4.398,-1.038 5.773,-2.834c18.213,-23.794 73.77,-96.376 85.45,-111.636c1.367,-1.786 3.488,-2.833 5.737,-2.833c12.559,0 54.086,0 56.48,0c0.06,0 0.108,0.048 0.108,0.108c0,0 0,0 0,0.001l-0.329,0l0.262,0.2c-2.944,3.845 -100.903,131.823 -120.325,157.196c-1.967,2.571 -1.985,6.137 -0.043,8.727c16.099,21.468 86.902,115.888 111.766,149.046c1.642,2.189 1.906,5.119 0.682,7.566c-1.224,2.448 -3.726,3.994 -6.462,3.994l-41.813,0c-2.274,0 -4.416,-1.071 -5.78,-2.89c-15.536,-20.718 -110.325,-147.124 -145.367,-193.854c-1.866,-2.489 -5.115,-3.504 -8.066,-2.52c-2.95,0.983 -4.94,3.744 -4.94,6.855c0,46.941 0,156.104 0,185.184c0,3.99 -3.235,7.225 -7.226,7.225c-9.036,0 -24.415,0 -33.452,0c-1.916,0 -3.754,-0.761 -5.109,-2.116c-1.355,-1.355 -2.116,-3.193 -2.116,-5.109c0,-43.694 0,-270.745 0,-270.745Z" style="fill:#fff;"/></g></svg>